<?xml version="1.0" standalone="no"?>
<!DOCTYPE svg PUBLIC "-//W3C//DTD SVG 20010904//EN"
 "http://www.w3.org/TR/2001/REC-SVG-20010904/DTD/svg10.dtd">
<svg version="1.0" xmlns="http://www.w3.org/2000/svg"
 width="64.000000pt" height="64.000000pt" viewBox="0 0 64.000000 64.000000"
 preserveAspectRatio="xMidYMid meet">

<g transform="translate(0.000000,64.000000) scale(0.100000,-0.100000)"
fill="#000000" stroke="none">
<path d="M336 509 c-109 -21 -201 -40 -203 -43 -22 -21 35 -17 209 16 111 21
207 37 213 34 16 -6 57 -237 44 -252 -13 -15 3 -26 25 -18 20 8 20 2 -12 164
-26 129 -28 135 -52 137 -14 1 -114 -16 -224 -38z"/>
<path d="M330 454 c-113 -12 -213 -23 -224 -23 -12 -1 -16 -6 -12 -16 4 -12
-4 -15 -44 -15 l-50 0 0 -155 0 -155 263 2 262 3 3 36 c2 29 7 36 20 33 37 -9
39 6 23 160 -9 82 -20 150 -26 151 -5 2 -102 -8 -215 -21z m203 -36 c3 -18 9
-64 12 -103 3 -38 9 -82 11 -97 4 -21 2 -28 -10 -28 -13 0 -16 18 -18 103 l-3
102 -210 4 -210 4 200 22 c110 12 205 23 211 24 7 0 14 -14 17 -31z m-33 -178
l0 -130 -235 0 -235 0 0 130 0 130 235 0 235 0 0 -130z"/>
<path d="M85 340 c-3 -11 -13 -20 -21 -20 -11 0 -14 -16 -14 -70 0 -61 3 -72
25 -95 26 -25 27 -25 195 -25 141 0 170 2 170 14 0 8 9 18 20 21 17 5 20 15
20 71 0 59 -3 68 -29 95 l-29 29 -166 0 c-156 0 -165 -1 -171 -20z m345 -30
c29 -29 28 -106 -2 -137 -21 -22 -28 -23 -164 -23 -140 0 -144 1 -169 25 -33
34 -35 98 -3 132 21 22 28 23 170 23 135 0 150 -2 168 -20z"/>
<path d="M233 310 c-45 -18 -55 -72 -22 -114 37 -47 110 -26 125 36 5 22 0 33
-24 58 -32 31 -43 34 -79 20z m61 -36 c30 -30 13 -74 -29 -74 -27 0 -45 18
-45 45 0 42 44 59 74 29z"/>
</g>
</svg>
