<?xml version="1.0" standalone="no"?>
<!DOCTYPE svg PUBLIC "-//W3C//DTD SVG 20010904//EN"
 "http://www.w3.org/TR/2001/REC-SVG-20010904/DTD/svg10.dtd">
<svg version="1.0" xmlns="http://www.w3.org/2000/svg"
 width="512.000000pt" height="512.000000pt" viewBox="0 0 512.000000 512.000000"
 preserveAspectRatio="xMidYMid meet">

<g transform="translate(0.000000,512.000000) scale(0.100000,-0.100000)"
fill="#000000" stroke="none">
<path d="M4734 3345 l-111 -65 -6 -427 c-10 -592 -9 -1135 1 -1131 5 2 59 32
120 68 l112 65 1 125 c4 427 4 1430 -1 1429 -3 0 -55 -29 -116 -64z"/>
<path d="M4418 3138 l-118 -70 0 -779 c0 -428 2 -779 4 -779 3 0 210 119 233
134 7 5 14 1566 7 1565 -5 0 -62 -32 -126 -71z"/>
<path d="M4108 2932 l-118 -67 -1 -550 c0 -691 1 -999 5 -1003 2 -2 26 10 52
26 27 16 79 46 117 66 l67 37 0 779 c0 429 -1 780 -2 780 -2 0 -56 -30 -120
-68z"/>
</g>
</svg>
